<svg preserveAspectRatio="none" overflow="visible" style="display: block;" width="24.788" height="24" viewBox="0 0 24.788 24" fill="none" xmlns="http://www.w3.org/2000/svg">
<g id="logo">
<g id="logo_2">
<path d="M3.34475 0.362866C3.13161 1.29591 3.00045 2.24624 2.95126 3.21384C2.91847 4.18144 2.90207 5.14904 2.90207 6.11665V14.6955C2.90207 15.6631 2.91847 16.6307 2.95126 17.5983C3.00045 18.5659 3.13161 19.5162 3.34475 20.4493H0C0.213146 19.5162 0.33611 18.5659 0.368902 17.5983C0.418089 16.6307 0.442684 15.6631 0.442684 14.6955V6.11665C0.442684 5.14904 0.418089 4.18144 0.368902 3.21384C0.33611 2.24624 0.213146 1.29591 0 0.362866H3.34475Z" fill="black"/>
<path d="M16.8688 21.4601C17.787 21.4601 18.7052 21.4341 19.6233 21.3823C20.5415 21.3477 21.4433 21.2182 22.3286 20.9935V24C21.4433 23.7754 20.5415 23.6372 19.6233 23.5853C18.7052 23.5508 17.787 23.5335 16.8688 23.5335H13.3765C12.4583 23.5335 11.5402 23.5508 10.622 23.5853C9.70384 23.6372 8.80207 23.7754 7.9167 24V20.9935C8.80207 21.2182 9.70384 21.3477 10.622 21.3823C11.5402 21.4341 12.4583 21.4601 13.3765 21.4601H13.8438V20.7344C12.1878 20.527 10.7286 19.9482 9.4661 18.9979C8.20362 18.0475 7.21168 16.8294 6.49026 15.3434C5.78524 13.8575 5.43272 12.2074 5.43272 10.3931C5.43272 8.92442 5.67046 7.55941 6.14594 6.29807C6.62142 5.03673 7.28544 3.93954 8.13803 3.00649C9.00701 2.05617 10.0317 1.32183 11.2123 0.803472C12.3928 0.267835 13.688 1.59749e-05 15.0981 1.59749e-05C16.5081 1.59749e-05 17.8034 0.259194 18.9839 0.777552C20.1644 1.29591 21.1891 2.03025 22.0581 2.98058C22.9271 3.91362 23.5993 5.01081 24.0748 6.27215C24.5503 7.53349 24.788 8.90714 24.788 10.3931C24.788 12.2074 24.4273 13.8575 23.7059 15.3434C22.9845 16.8294 21.9843 18.0475 20.7055 18.9979C19.443 19.9482 17.9755 20.527 16.3032 20.7344V21.4601H16.8688ZM15.0735 18.7387C16.1392 18.7387 17.1066 18.5141 17.9755 18.0648C18.8445 17.6156 19.5905 17.0108 20.2136 16.2506C20.8366 15.473 21.3121 14.5832 21.64 13.581C21.9679 12.5616 22.1319 11.4989 22.1319 10.3931C22.1319 9.27 21.9679 8.20736 21.64 7.2052C21.3121 6.20304 20.8366 5.32183 20.2136 4.56157C19.5905 3.78403 18.8445 3.17928 17.9755 2.74732C17.1066 2.29807 16.1392 2.07345 15.0735 2.07345C14.0077 2.07345 13.0404 2.29807 12.1714 2.74732C11.3188 3.17928 10.5892 3.78403 9.98257 4.56157C9.37592 5.33911 8.90864 6.22896 8.58072 7.23112C8.25281 8.216 8.08885 9.27 8.08885 10.3931C8.08885 11.4989 8.25281 12.5616 8.58072 13.581C8.90864 14.5832 9.37592 15.473 9.98257 16.2506C10.5892 17.0108 11.3188 17.6156 12.1714 18.0648C13.0404 18.5141 14.0077 18.7387 15.0735 18.7387Z" fill="black"/>
</g>
</g>
</svg>
